<?xml version="1.0" standalone="no"?>
<!DOCTYPE svg PUBLIC "-//W3C//DTD SVG 20010904//EN"
 "http://www.w3.org/TR/2001/REC-SVG-20010904/DTD/svg10.dtd">
<svg version="1.0" xmlns="http://www.w3.org/2000/svg"
 width="225.000000pt" height="225.000000pt" viewBox="0 0 225.000000 225.000000"
 preserveAspectRatio="xMidYMid meet">

<g transform="translate(0.000000,225.000000) scale(0.100000,-0.100000)"
fill="#000000" stroke="none">
<path d="M270 1955 c0 -14 383 -1576 421 -1717 5 -21 15 -38 22 -38 19 1 1302
1240 1302 1258 0 13 -168 65 -840 259 -462 133 -855 245 -872 249 -27 5 -33 3
-33 -11z m166 -64 c54 -16 132 -39 171 -51 l73 -21 -131 -127 c-72 -70 -135
-128 -139 -130 -4 -1 -28 78 -52 178 -31 122 -42 180 -34 180 7 0 57 -13 112
-29z m503 -145 c84 -24 154 -46 157 -49 5 -4 -240 -249 -254 -255 -7 -2 -93
328 -92 351 0 5 8 6 19 2 10 -3 87 -25 170 -49z m-185 -140 c24 -97 39 -176
33 -176 -9 0 -304 84 -337 96 -10 4 26 44 120 134 74 70 136 127 138 125 2 -1
22 -82 46 -179z m664 2 c62 -17 111 -34 110 -37 -2 -3 -62 -64 -134 -134
l-131 -128 -42 168 c-23 92 -44 176 -47 185 -5 15 1 15 63 -3 37 -10 119 -34
181 -51z m-239 -120 c22 -94 39 -173 36 -176 -5 -5 -336 86 -345 95 -5 5 250
252 261 253 3 0 25 -77 48 -172z m601 16 c91 -26 169 -50 173 -54 4 -4 -51
-64 -124 -134 -73 -70 -135 -123 -139 -119 -4 4 -25 80 -45 168 -21 88 -40
166 -42 173 -7 18 -4 17 177 -34z m-171 -148 c23 -93 40 -170 39 -172 -2 -1
-84 20 -182 49 l-179 51 134 127 c74 70 137 125 140 121 3 -4 25 -83 48 -176z
m-1009 87 c91 -25 168 -49 173 -53 4 -3 -52 -64 -123 -135 -74 -72 -135 -124
-139 -119 -5 5 -25 79 -45 164 -20 85 -39 163 -42 173 -3 9 -2 17 3 17 4 0 82
-21 173 -47z m429 -123 c95 -27 175 -51 178 -53 2 -2 -56 -62 -129 -132 -113
-109 -133 -125 -140 -109 -4 11 -24 84 -43 164 -20 80 -38 153 -41 163 -3 9
-4 17 -2 17 2 0 81 -22 177 -50z m-124 -328 c-2 -2 -85 21 -186 50 l-183 52
139 134 140 134 46 -184 c25 -101 45 -184 44 -186z m728 148 c7 -6 -241 -249
-259 -253 -7 -2 -93 320 -94 349 0 12 336 -80 353 -96z m-344 -94 c23 -93 40
-171 37 -173 -5 -6 -337 87 -349 97 -4 4 51 64 124 134 73 70 135 123 139 119
4 -4 26 -84 49 -177z m-409 -93 c5 -5 -250 -253 -260 -253 -5 0 -91 335 -90
351 0 7 341 -89 350 -98z m90 -220 c22 -89 40 -164 40 -166 0 -2 -81 19 -180
47 l-180 51 133 133 c108 108 133 129 139 115 4 -10 26 -91 48 -180z m174 147
c93 -27 170 -51 172 -53 2 -1 -57 -60 -131 -131 -81 -76 -137 -122 -139 -114
-2 7 -21 81 -40 163 -20 83 -39 158 -42 168 -3 9 -2 17 3 17 4 0 84 -23 177
-50z m-326 -301 c97 -28 178 -52 180 -54 4 -4 -256 -259 -268 -263 -4 -2 -27
75 -49 170 -23 95 -44 179 -46 186 -2 6 -2 12 1 12 3 0 85 -23 182 -51z"/>
</g>
</svg>
