<?xml version="1.0" standalone="no"?>
<!DOCTYPE svg PUBLIC "-//W3C//DTD SVG 20010904//EN"
 "http://www.w3.org/TR/2001/REC-SVG-20010904/DTD/svg10.dtd">
<svg version="1.0" xmlns="http://www.w3.org/2000/svg"
 width="640.000000pt" height="1280.000000pt" viewBox="0 0 640.000000 1280.000000"
 preserveAspectRatio="xMidYMid meet">
<metadata>
Created by potrace 1.15, written by Peter Selinger 2001-2017
</metadata>
<g transform="translate(0.000000,1280.000000) scale(0.100000,-0.100000)"
fill="#000000" stroke="none">
<path d="M2640 12794 c-1013 -31 -1821 -126 -2201 -259 -90 -31 -149 -65 -183
-106 -25 -29 -26 -35 -26 -160 l0 -129 35 -39 c36 -40 143 -92 247 -120 l47
-13 -6 -3382 c-3 -1859 -8 -4366 -12 -5569 l-6 -2188 -80 -28 c-111 -39 -157
-64 -193 -106 l-32 -36 0 -129 0 -129 31 -36 c142 -161 861 -284 2034 -347
306 -17 1495 -17 1800 0 363 20 733 47 900 67 256 30 368 46 593 85 174 29
408 102 497 154 70 41 75 56 75 209 0 118 -2 137 -20 159 -23 30 -134 89 -213
114 l-58 18 7 2685 c4 1478 9 3988 13 5580 l6 2894 52 18 c76 25 171 78 194
107 17 22 19 41 19 162 0 166 -3 172 -123 229 -208 100 -642 181 -1247 235
-492 44 -798 56 -1450 60 -327 2 -642 2 -700 0z m2986 -3816 c-3 -1619 -9
-3701 -12 -4628 l-7 -1685 -23 110 c-63 305 -175 598 -379 995 -304 591 -858
1359 -1349 1870 -222 231 -376 431 -454 590 -34 69 -37 82 -37 160 0 80 3 90
42 165 84 164 210 320 493 610 970 995 1512 1942 1674 2925 39 233 50 608 23
745 -55 281 -234 567 -541 866 l-120 117 59 7 c271 31 549 72 634 94 2 1 0
-1323 -3 -2941z m-4647 2902 c128 -20 301 -43 418 -55 l62 -7 -120 -116 c-243
-234 -404 -460 -495 -697 l-23 -60 -1 484 c0 438 1 483 16 477 9 -3 73 -15
143 -26z m-89 -2134 c73 -285 182 -569 330 -861 246 -487 512 -868 994 -1427
128 -149 112 -132 310 -327 225 -222 384 -419 457 -565 67 -138 68 -209 5
-343 -80 -168 -219 -344 -533 -675 -482 -506 -1066 -1349 -1351 -1948 -115
-241 -226 -536 -267 -710 -10 -41 -20 -78 -24 -82 -8 -9 -4 3836 5 5782 7
1466 7 1474 25 1376 10 -55 32 -154 49 -220z m4716 -8853 c-2 -3 -73 7 -158
21 -84 14 -191 30 -238 36 -47 6 -102 13 -122 16 l-38 6 84 95 c180 204 351
482 396 643 36 133 70 264 72 285 2 11 4 -232 5 -539 2 -308 1 -561 -1 -563z
m-4752 867 c80 -253 226 -499 418 -706 38 -42 68 -77 66 -79 -4 -4 -45 -10
-228 -36 -98 -13 -259 -39 -287 -46 l-23 -5 1 513 c0 283 4 505 9 494 4 -11
24 -72 44 -135z"/>
</g>
</svg>
